<svg width="1262" height="275" viewBox="0 0 1262 275" fill="none" xmlns="http://www.w3.org/2000/svg">
<g filter="url(#filter0_d)">
<path d="M11 238.35V228C41.1116 235.093 57.6029 235.599 89 228V238.35C60.088 246.719 43.076 246.469 11 238.35Z" fill="#8673EB"/>
</g>
<path d="M11.3087 250.5V96.5H88.3087V250.5C60.5513 263.556 31.8589 260.468 11.3087 250.5Z" stroke="white"/>
<g filter="url(#filter1_d)">
<path d="M11.3087 96.5C11.3087 85 35.7233 85 54.5038 85C73.2843 85 88.3087 86.9167 88.3087 96.5C88.3087 106.083 73.2843 108 56.3819 108C39.4794 108 11.3087 108 11.3087 96.5Z" fill="white"/>
<path d="M11.3087 96.5C11.3087 85 35.7233 85 54.5038 85C73.2843 85 88.3087 86.9167 88.3087 96.5C88.3087 106.083 73.2843 108 56.3819 108C39.4794 108 11.3087 108 11.3087 96.5Z" stroke="white" stroke-width="4" stroke-linejoin="round"/>
</g>
<path d="M50.3087 1V85" stroke="white" stroke-width="4"/>
<g filter="url(#filter2_d)">
<path d="M11.3087 96.5C11.3087 96.5 10.1944 239.204 12.2001 250.298C14.2058 261.391 86.4115 262.4 88.4173 250.298C90.423 238.196 88.3087 96 88.3087 96" stroke="white" stroke-width="4"/>
</g>
<g filter="url(#filter3_d)">
<path d="M10 124.35V114C40.1116 121.093 56.6029 121.599 88 114V124.35C59.088 132.719 42.076 132.469 10 124.35Z" fill="white"/>
</g>
<g filter="url(#filter4_d)">
<path d="M1170 241.35V231C1200.11 238.093 1216.6 238.599 1248 231V241.35C1219.09 249.719 1202.08 249.469 1170 241.35Z" fill="#8673EB"/>
</g>
<path d="M1170.31 253.5V99.5H1247.31V253.5C1219.55 266.556 1190.86 263.468 1170.31 253.5Z" stroke="white"/>
<g filter="url(#filter5_d)">
<path d="M1170.31 99.5C1170.31 88 1194.72 88 1213.5 88C1232.28 88 1247.31 89.9167 1247.31 99.5C1247.31 109.083 1232.28 111 1215.38 111C1198.48 111 1170.31 111 1170.31 99.5Z" fill="white"/>
<path d="M1170.31 99.5C1170.31 88 1194.72 88 1213.5 88C1232.28 88 1247.31 89.9167 1247.31 99.5C1247.31 109.083 1232.28 111 1215.38 111C1198.48 111 1170.31 111 1170.31 99.5Z" stroke="white" stroke-width="4" stroke-linejoin="round"/>
</g>
<path d="M1209.31 4V88" stroke="white" stroke-width="4"/>
<g filter="url(#filter6_d)">
<path d="M1170.31 99.5C1170.31 99.5 1169.19 242.204 1171.2 253.298C1173.21 264.391 1245.41 265.4 1247.42 253.298C1249.42 241.196 1247.31 99 1247.31 99" stroke="white" stroke-width="4"/>
</g>
<g filter="url(#filter7_d)">
<path d="M1169 127.35V117C1199.11 124.093 1215.6 124.599 1247 117V127.35C1218.09 135.719 1201.08 135.469 1169 127.35Z" fill="white"/>
</g>
<g filter="url(#filter8_d)">
<path d="M303 193.35V183C333.112 190.093 349.603 190.599 381 183V193.35C352.088 201.719 335.076 201.469 303 193.35Z" fill="#8673EB"/>
</g>
<path d="M303.309 205.5V51.5H380.309V205.5C352.551 218.556 323.859 215.468 303.309 205.5Z" stroke="white"/>
<g filter="url(#filter9_d)">
<path d="M303.309 51.5C303.309 40 327.723 40 346.504 40C365.284 40 380.309 41.9167 380.309 51.5C380.309 61.0833 365.284 63 348.382 63C331.479 63 303.309 63 303.309 51.5Z" fill="white"/>
<path d="M303.309 51.5C303.309 40 327.723 40 346.504 40C365.284 40 380.309 41.9167 380.309 51.5C380.309 61.0833 365.284 63 348.382 63C331.479 63 303.309 63 303.309 51.5Z" stroke="white" stroke-width="4" stroke-linejoin="round"/>
</g>
<path d="M342 1L342.309 40" stroke="white" stroke-width="4"/>
<g filter="url(#filter10_d)">
<path d="M303.309 51.5C303.309 51.5 302.194 194.204 304.2 205.298C306.206 216.391 378.412 217.4 380.417 205.298C382.423 193.196 380.309 51 380.309 51" stroke="white" stroke-width="4"/>
</g>
<g filter="url(#filter11_d)">
<path d="M302 79.3501V69C332.112 76.093 348.603 76.5989 380 69V79.3501C351.088 87.7186 334.076 87.4691 302 79.3501Z" fill="white"/>
</g>
<g filter="url(#filter12_d)">
<path d="M868 193.35V183C898.112 190.093 914.603 190.599 946 183V193.35C917.088 201.719 900.076 201.469 868 193.35Z" fill="#8673EB"/>
</g>
<path d="M868.309 205.5V51.5H945.309V205.5C917.551 218.556 888.859 215.468 868.309 205.5Z" stroke="white"/>
<g filter="url(#filter13_d)">
<path d="M868.309 51.5C868.309 40 892.723 40 911.504 40C930.284 40 945.309 41.9167 945.309 51.5C945.309 61.0833 930.284 63 913.382 63C896.479 63 868.309 63 868.309 51.5Z" fill="white"/>
<path d="M868.309 51.5C868.309 40 892.723 40 911.504 40C930.284 40 945.309 41.9167 945.309 51.5C945.309 61.0833 930.284 63 913.382 63C896.479 63 868.309 63 868.309 51.5Z" stroke="white" stroke-width="4" stroke-linejoin="round"/>
</g>
<path d="M907 1L907.309 40" stroke="white" stroke-width="4"/>
<g filter="url(#filter14_d)">
<path d="M868.309 51.5C868.309 51.5 867.194 194.204 869.2 205.298C871.206 216.391 943.412 217.4 945.417 205.298C947.423 193.196 945.309 51 945.309 51" stroke="white" stroke-width="4"/>
</g>
<g filter="url(#filter15_d)">
<path d="M867 79.3501V69C897.112 76.093 913.603 76.5989 945 69V79.3501C916.088 87.7186 899.076 87.4691 867 79.3501Z" fill="white"/>
</g>
<defs>
<filter id="filter0_d" x="2" y="219" width="98" height="36.5333" filterUnits="userSpaceOnUse" color-interpolation-filters="sRGB">
<feFlood flood-opacity="0" result="BackgroundImageFix"/>
<feColorMatrix in="SourceAlpha" type="matrix" values="0 0 0 0 0 0 0 0 0 0 0 0 0 0 0 0 0 0 127 0"/>
<feOffset dx="1" dy="1"/>
<feGaussianBlur stdDeviation="5"/>
<feColorMatrix type="matrix" values="0 0 0 0 0.517647 0 0 0 0 0.439216 0 0 0 0 0.921569 0 0 0 1 0"/>
<feBlend mode="normal" in2="BackgroundImageFix" result="effect1_dropShadow"/>
<feBlend mode="normal" in="SourceGraphic" in2="effect1_dropShadow" result="shape"/>
</filter>
<filter id="filter1_d" x="0.308685" y="74" width="101" height="47" filterUnits="userSpaceOnUse" color-interpolation-filters="sRGB">
<feFlood flood-opacity="0" result="BackgroundImageFix"/>
<feColorMatrix in="SourceAlpha" type="matrix" values="0 0 0 0 0 0 0 0 0 0 0 0 0 0 0 0 0 0 127 0"/>
<feOffset dx="1" dy="1"/>
<feGaussianBlur stdDeviation="5"/>
<feColorMatrix type="matrix" values="0 0 0 0 1 0 0 0 0 1 0 0 0 0 1 0 0 0 1 0"/>
<feBlend mode="normal" in2="BackgroundImageFix" result="effect1_dropShadow"/>
<feBlend mode="normal" in="SourceGraphic" in2="effect1_dropShadow" result="shape"/>
</filter>
<filter id="filter2_d" x="0" y="86.9716" width="102.281" height="185.028" filterUnits="userSpaceOnUse" color-interpolation-filters="sRGB">
<feFlood flood-opacity="0" result="BackgroundImageFix"/>
<feColorMatrix in="SourceAlpha" type="matrix" values="0 0 0 0 0 0 0 0 0 0 0 0 0 0 0 0 0 0 127 0"/>
<feOffset dx="1" dy="1"/>
<feGaussianBlur stdDeviation="5"/>
<feColorMatrix type="matrix" values="0 0 0 0 1 0 0 0 0 1 0 0 0 0 1 0 0 0 1 0"/>
<feBlend mode="normal" in2="BackgroundImageFix" result="effect1_dropShadow"/>
<feBlend mode="normal" in="SourceGraphic" in2="effect1_dropShadow" result="shape"/>
</filter>
<filter id="filter3_d" x="1" y="105" width="98" height="36.5333" filterUnits="userSpaceOnUse" color-interpolation-filters="sRGB">
<feFlood flood-opacity="0" result="BackgroundImageFix"/>
<feColorMatrix in="SourceAlpha" type="matrix" values="0 0 0 0 0 0 0 0 0 0 0 0 0 0 0 0 0 0 127 0"/>
<feOffset dx="1" dy="1"/>
<feGaussianBlur stdDeviation="5"/>
<feColorMatrix type="matrix" values="0 0 0 0 1 0 0 0 0 1 0 0 0 0 1 0 0 0 1 0"/>
<feBlend mode="normal" in2="BackgroundImageFix" result="effect1_dropShadow"/>
<feBlend mode="normal" in="SourceGraphic" in2="effect1_dropShadow" result="shape"/>
</filter>
<filter id="filter4_d" x="1161" y="222" width="98" height="36.5333" filterUnits="userSpaceOnUse" color-interpolation-filters="sRGB">
<feFlood flood-opacity="0" result="BackgroundImageFix"/>
<feColorMatrix in="SourceAlpha" type="matrix" values="0 0 0 0 0 0 0 0 0 0 0 0 0 0 0 0 0 0 127 0"/>
<feOffset dx="1" dy="1"/>
<feGaussianBlur stdDeviation="5"/>
<feColorMatrix type="matrix" values="0 0 0 0 0.517647 0 0 0 0 0.439216 0 0 0 0 0.921569 0 0 0 1 0"/>
<feBlend mode="normal" in2="BackgroundImageFix" result="effect1_dropShadow"/>
<feBlend mode="normal" in="SourceGraphic" in2="effect1_dropShadow" result="shape"/>
</filter>
<filter id="filter5_d" x="1159.31" y="77" width="101" height="47" filterUnits="userSpaceOnUse" color-interpolation-filters="sRGB">
<feFlood flood-opacity="0" result="BackgroundImageFix"/>
<feColorMatrix in="SourceAlpha" type="matrix" values="0 0 0 0 0 0 0 0 0 0 0 0 0 0 0 0 0 0 127 0"/>
<feOffset dx="1" dy="1"/>
<feGaussianBlur stdDeviation="5"/>
<feColorMatrix type="matrix" values="0 0 0 0 1 0 0 0 0 1 0 0 0 0 1 0 0 0 1 0"/>
<feBlend mode="normal" in2="BackgroundImageFix" result="effect1_dropShadow"/>
<feBlend mode="normal" in="SourceGraphic" in2="effect1_dropShadow" result="shape"/>
</filter>
<filter id="filter6_d" x="1159" y="89.9716" width="102.281" height="185.028" filterUnits="userSpaceOnUse" color-interpolation-filters="sRGB">
<feFlood flood-opacity="0" result="BackgroundImageFix"/>
<feColorMatrix in="SourceAlpha" type="matrix" values="0 0 0 0 0 0 0 0 0 0 0 0 0 0 0 0 0 0 127 0"/>
<feOffset dx="1" dy="1"/>
<feGaussianBlur stdDeviation="5"/>
<feColorMatrix type="matrix" values="0 0 0 0 1 0 0 0 0 1 0 0 0 0 1 0 0 0 1 0"/>
<feBlend mode="normal" in2="BackgroundImageFix" result="effect1_dropShadow"/>
<feBlend mode="normal" in="SourceGraphic" in2="effect1_dropShadow" result="shape"/>
</filter>
<filter id="filter7_d" x="1160" y="108" width="98" height="36.5333" filterUnits="userSpaceOnUse" color-interpolation-filters="sRGB">
<feFlood flood-opacity="0" result="BackgroundImageFix"/>
<feColorMatrix in="SourceAlpha" type="matrix" values="0 0 0 0 0 0 0 0 0 0 0 0 0 0 0 0 0 0 127 0"/>
<feOffset dx="1" dy="1"/>
<feGaussianBlur stdDeviation="5"/>
<feColorMatrix type="matrix" values="0 0 0 0 1 0 0 0 0 1 0 0 0 0 1 0 0 0 1 0"/>
<feBlend mode="normal" in2="BackgroundImageFix" result="effect1_dropShadow"/>
<feBlend mode="normal" in="SourceGraphic" in2="effect1_dropShadow" result="shape"/>
</filter>
<filter id="filter8_d" x="294" y="174" width="98" height="36.5333" filterUnits="userSpaceOnUse" color-interpolation-filters="sRGB">
<feFlood flood-opacity="0" result="BackgroundImageFix"/>
<feColorMatrix in="SourceAlpha" type="matrix" values="0 0 0 0 0 0 0 0 0 0 0 0 0 0 0 0 0 0 127 0"/>
<feOffset dx="1" dy="1"/>
<feGaussianBlur stdDeviation="5"/>
<feColorMatrix type="matrix" values="0 0 0 0 0.517647 0 0 0 0 0.439216 0 0 0 0 0.921569 0 0 0 1 0"/>
<feBlend mode="normal" in2="BackgroundImageFix" result="effect1_dropShadow"/>
<feBlend mode="normal" in="SourceGraphic" in2="effect1_dropShadow" result="shape"/>
</filter>
<filter id="filter9_d" x="292.309" y="29" width="101" height="47" filterUnits="userSpaceOnUse" color-interpolation-filters="sRGB">
<feFlood flood-opacity="0" result="BackgroundImageFix"/>
<feColorMatrix in="SourceAlpha" type="matrix" values="0 0 0 0 0 0 0 0 0 0 0 0 0 0 0 0 0 0 127 0"/>
<feOffset dx="1" dy="1"/>
<feGaussianBlur stdDeviation="5"/>
<feColorMatrix type="matrix" values="0 0 0 0 1 0 0 0 0 1 0 0 0 0 1 0 0 0 1 0"/>
<feBlend mode="normal" in2="BackgroundImageFix" result="effect1_dropShadow"/>
<feBlend mode="normal" in="SourceGraphic" in2="effect1_dropShadow" result="shape"/>
</filter>
<filter id="filter10_d" x="292" y="41.9716" width="102.281" height="185.028" filterUnits="userSpaceOnUse" color-interpolation-filters="sRGB">
<feFlood flood-opacity="0" result="BackgroundImageFix"/>
<feColorMatrix in="SourceAlpha" type="matrix" values="0 0 0 0 0 0 0 0 0 0 0 0 0 0 0 0 0 0 127 0"/>
<feOffset dx="1" dy="1"/>
<feGaussianBlur stdDeviation="5"/>
<feColorMatrix type="matrix" values="0 0 0 0 1 0 0 0 0 1 0 0 0 0 1 0 0 0 1 0"/>
<feBlend mode="normal" in2="BackgroundImageFix" result="effect1_dropShadow"/>
<feBlend mode="normal" in="SourceGraphic" in2="effect1_dropShadow" result="shape"/>
</filter>
<filter id="filter11_d" x="293" y="60" width="98" height="36.5333" filterUnits="userSpaceOnUse" color-interpolation-filters="sRGB">
<feFlood flood-opacity="0" result="BackgroundImageFix"/>
<feColorMatrix in="SourceAlpha" type="matrix" values="0 0 0 0 0 0 0 0 0 0 0 0 0 0 0 0 0 0 127 0"/>
<feOffset dx="1" dy="1"/>
<feGaussianBlur stdDeviation="5"/>
<feColorMatrix type="matrix" values="0 0 0 0 1 0 0 0 0 1 0 0 0 0 1 0 0 0 1 0"/>
<feBlend mode="normal" in2="BackgroundImageFix" result="effect1_dropShadow"/>
<feBlend mode="normal" in="SourceGraphic" in2="effect1_dropShadow" result="shape"/>
</filter>
<filter id="filter12_d" x="859" y="174" width="98" height="36.5333" filterUnits="userSpaceOnUse" color-interpolation-filters="sRGB">
<feFlood flood-opacity="0" result="BackgroundImageFix"/>
<feColorMatrix in="SourceAlpha" type="matrix" values="0 0 0 0 0 0 0 0 0 0 0 0 0 0 0 0 0 0 127 0"/>
<feOffset dx="1" dy="1"/>
<feGaussianBlur stdDeviation="5"/>
<feColorMatrix type="matrix" values="0 0 0 0 0.517647 0 0 0 0 0.439216 0 0 0 0 0.921569 0 0 0 1 0"/>
<feBlend mode="normal" in2="BackgroundImageFix" result="effect1_dropShadow"/>
<feBlend mode="normal" in="SourceGraphic" in2="effect1_dropShadow" result="shape"/>
</filter>
<filter id="filter13_d" x="857.309" y="29" width="101" height="47" filterUnits="userSpaceOnUse" color-interpolation-filters="sRGB">
<feFlood flood-opacity="0" result="BackgroundImageFix"/>
<feColorMatrix in="SourceAlpha" type="matrix" values="0 0 0 0 0 0 0 0 0 0 0 0 0 0 0 0 0 0 127 0"/>
<feOffset dx="1" dy="1"/>
<feGaussianBlur stdDeviation="5"/>
<feColorMatrix type="matrix" values="0 0 0 0 1 0 0 0 0 1 0 0 0 0 1 0 0 0 1 0"/>
<feBlend mode="normal" in2="BackgroundImageFix" result="effect1_dropShadow"/>
<feBlend mode="normal" in="SourceGraphic" in2="effect1_dropShadow" result="shape"/>
</filter>
<filter id="filter14_d" x="857" y="41.9716" width="102.281" height="185.028" filterUnits="userSpaceOnUse" color-interpolation-filters="sRGB">
<feFlood flood-opacity="0" result="BackgroundImageFix"/>
<feColorMatrix in="SourceAlpha" type="matrix" values="0 0 0 0 0 0 0 0 0 0 0 0 0 0 0 0 0 0 127 0"/>
<feOffset dx="1" dy="1"/>
<feGaussianBlur stdDeviation="5"/>
<feColorMatrix type="matrix" values="0 0 0 0 1 0 0 0 0 1 0 0 0 0 1 0 0 0 1 0"/>
<feBlend mode="normal" in2="BackgroundImageFix" result="effect1_dropShadow"/>
<feBlend mode="normal" in="SourceGraphic" in2="effect1_dropShadow" result="shape"/>
</filter>
<filter id="filter15_d" x="858" y="60" width="98" height="36.5333" filterUnits="userSpaceOnUse" color-interpolation-filters="sRGB">
<feFlood flood-opacity="0" result="BackgroundImageFix"/>
<feColorMatrix in="SourceAlpha" type="matrix" values="0 0 0 0 0 0 0 0 0 0 0 0 0 0 0 0 0 0 127 0"/>
<feOffset dx="1" dy="1"/>
<feGaussianBlur stdDeviation="5"/>
<feColorMatrix type="matrix" values="0 0 0 0 1 0 0 0 0 1 0 0 0 0 1 0 0 0 1 0"/>
<feBlend mode="normal" in2="BackgroundImageFix" result="effect1_dropShadow"/>
<feBlend mode="normal" in="SourceGraphic" in2="effect1_dropShadow" result="shape"/>
</filter>
</defs>
</svg>
