<svg version="1.1" viewBox="0.0 0.0 1377.4829396325458 132.31496062992127" fill="none" stroke="none" stroke-linecap="square" stroke-miterlimit="10" xmlns:xlink="http://www.w3.org/1999/xlink" xmlns="http://www.w3.org/2000/svg"><clipPath id="p.0"><path d="m0 0l1377.4829 0l0 132.31496l-1377.4829 0l0 -132.31496z" clip-rule="nonzero"/></clipPath><g clip-path="url(#p.0)"><path fill="#000000" d="m0 0l1377.4829 0l0 132.31496l-1377.4829 0z" fill-rule="evenodd"/><path fill="#40de3d" d="m1349.3884 16.37275l0 0c0 -1.2930384 1.0482178 -2.3412533 2.3413086 -2.3412533l9.364746 0l0 0c0.6208496 0 1.2164307 0.24666691 1.6555176 0.6857376c0.4390869 0.43906975 0.68566895 1.0345774 0.68566895 1.6555157l0 99.56946c0 1.293045 -1.0482178 2.3412552 -2.3411865 2.3412552l-9.364746 0c-1.2930908 0 -2.3413086 -1.0482101 -2.3413086 -2.3412552z" fill-rule="evenodd"/><path fill="#40de3d" d="m14.047244 16.37275l0 0c0 -1.2930384 1.0482149 -2.3412533 2.3412542 -2.3412533l9.364737 0l0 0c0.62093925 0 1.2164459 0.24666691 1.6555157 0.6857376c0.43906975 0.43906975 0.6857376 1.0345774 0.6857376 1.6555157l0 99.56946c0 1.293045 -1.0482159 2.3412552 -2.3412533 2.3412552l-9.364737 0c-1.2930393 0 -2.3412542 -1.0482101 -2.3412542 -2.3412552z" fill-rule="evenodd"/></g></svg>