<svg xmlns="http://www.w3.org/2000/svg" viewBox="0 0 951 550"><defs><style>.cls-1,.cls-10,.cls-11,.cls-2,.cls-4,.cls-5,.cls-6,.cls-7,.cls-8,.cls-9{fill:none;stroke-miterlimit:10;}.cls-1,.cls-2,.cls-6{stroke:#e7009b;}.cls-2{stroke-width:0.75px;}.cls-3{fill:#fff;}.cls-4{stroke:#fff;}.cls-4,.cls-5,.cls-6,.cls-7{stroke-width:3px;}.cls-10,.cls-5{stroke:#b0e5f9;}.cls-7{stroke:#9e443b;}.cls-8{stroke:#836feb;}.cls-11,.cls-8,.cls-9{stroke-width:4px;}.cls-9{stroke:#f8a1ff;}.cls-11{stroke:#b06bf9;}.cls-12{fill:#b0e5f9;}</style></defs><title>footer</title><g id="Contact_Us" data-name="Contact Us"><line class="cls-1" x1="255.98" y1="121.12" x2="255.98" y2="150.05"/><line class="cls-1" x1="277.68" y1="119.67" x2="277.68" y2="150.05"/><line class="cls-2" x1="250.19" y1="137.03" x2="283.47" y2="137.03"/><line class="cls-1" x1="253.09" y1="151.5" x2="279.13" y2="151.5"/><line class="cls-1" x1="266.11" y1="120.39" x2="266.11" y2="184.05"/><line class="cls-1" x1="258.87" y1="167.41" x2="271.89" y2="167.41"/><path class="cls-3" d="M300.83,311.81c21.55,0,41.78,1.91,57,5.4,17,3.91,21.54,8.44,21.54,10.29s-4.5,6.39-21.54,10.3c-15.18,3.48-35.41,5.4-57,5.4s-41.78-1.92-57-5.4c-17-3.91-21.54-8.45-21.54-10.3s4.51-6.38,21.54-10.29c15.18-3.49,35.41-5.4,57-5.4m0-3c-45,0-81.5,8.37-81.5,18.69s36.49,18.7,81.5,18.7,81.5-8.37,81.5-18.7-36.49-18.69-81.5-18.69Z"/><line class="cls-4" x1="276.38" y1="346.47" x2="248.07" y2="523.14"/><line class="cls-4" x1="327" y1="347.01" x2="348.45" y2="525.31"/><line class="cls-4" x1="261.83" y1="434.31" x2="337.83" y2="434.31"/><path class="cls-3" d="M637.18,311.21c21.55,0,41.78,1.91,57,5.4,17,3.9,21.54,8.44,21.54,10.29s-4.5,6.39-21.54,10.3c-15.18,3.48-35.41,5.4-57,5.4s-41.78-1.92-57-5.4c-17-3.91-21.54-8.45-21.54-10.3s4.5-6.39,21.54-10.29c15.18-3.49,35.41-5.4,57-5.4m0-3c-45,0-81.5,8.37-81.5,18.69s36.49,18.7,81.5,18.7,81.5-8.37,81.5-18.7-36.49-18.69-81.5-18.69Z"/><line class="cls-4" x1="612.73" y1="345.87" x2="584.42" y2="522.54"/><line class="cls-4" x1="663.34" y1="346.41" x2="684.79" y2="524.71"/><line class="cls-4" x1="598.18" y1="433.71" x2="674.18" y2="433.71"/><polygon class="cls-4" points="141.83 193.31 82.83 249.31 808.83 249.31 858.83 193.31 141.83 193.31"/><line class="cls-4" x1="81.83" y1="250.31" x2="81.83" y2="428.31"/><line class="cls-4" x1="142.83" y1="193.31" x2="139.83" y2="387.31"/><line class="cls-4" x1="808.83" y1="247.81" x2="808.83" y2="425.81"/><line class="cls-4" x1="860.83" y1="191.81" x2="860.83" y2="369.81"/><polygon class="cls-5" points="551.53 122.38 570.34 191.82 596.38 122.38 551.53 122.38"/><ellipse class="cls-4" cx="571.79" cy="217.86" rx="33.27" ry="7.23"/><polygon class="cls-6" points="245.85 121.11 264.66 190.56 290.7 121.11 245.85 121.11"/><path class="cls-7" d="M381.17,103.66s24.62,34,56.43,0l-30.39,77.67Z"/><path class="cls-4" d="M381.17,135s28.93,36.17,53.52,0"/><path class="cls-4" d="M407.93,151l-.72,56.34Z"/><ellipse class="cls-4" cx="408.65" cy="207.37" rx="33.27" ry="7.23"/><path class="cls-4" d="M238.62,145.71s28.93,36.17,53.53,0"/><path class="cls-4" d="M265.38,160.25l-.72,56.35Z"/><ellipse class="cls-4" cx="266.11" cy="216.6" rx="33.27" ry="7.23"/><circle class="cls-3" cx="573.98" cy="91.58" r="31.83"/><path class="cls-8" d="M708.64,107.61s22.07,24.59,46.54,0l-21.84,85.08Z"/><circle class="cls-9" cx="731.91" cy="82.56" r="31.83"/><path class="cls-4" d="M706.57,138.4s28.94,36.17,53.53,0"/><path class="cls-4" d="M733.34,154.39l-.73,56.34Z"/><ellipse class="cls-4" cx="734.06" cy="210.73" rx="33.27" ry="7.23"/><line class="cls-10" x1="555.89" y1="135.71" x2="590.61" y2="135.71"/><line class="cls-10" x1="558.79" y1="151.62" x2="584.83" y2="151.62"/><line class="cls-10" x1="566.02" y1="168.98" x2="577.59" y2="168.98"/><line class="cls-10" x1="566.02" y1="124.14" x2="567.47" y2="176.22"/><line class="cls-10" x1="579.04" y1="124.14" x2="579.04" y2="168.98"/><path class="cls-4" d="M544.3,145.53s28.93,36.16,53.53,0"/><path class="cls-4" d="M571.06,161.52l-.72,56.34Z"/><path class="cls-11" d="M443.33,82.22c-2.88,46.92-66.69,42.35-67.67,0C378.55,35.3,442.35,39.88,443.33,82.22Z"/><circle class="cls-12" cx="267.28" cy="90.46" r="31.83"/></g></svg>